<svg height="507pt" viewBox="0 0 507.35917 507" width="507pt" xmlns="http://www.w3.org/2000/svg"><path d="m455.777344 148.210938-78.164063 98.21875-108.203125 135.9375-90.195312 113.320312c-1.507813 1.910156-3.757813 3.085938-6.1875 3.234375-2.429688.144531-4.804688-.75-6.527344-2.464844l-21.335938-21.332031-134.144531-134.144531c-1.714843-1.726563-2.609375-4.101563-2.464843-6.53125.148437-2.429688 1.324218-4.679688 3.234374-6.183594l113.324219-90.199219 135.933594-108.203125 98.21875-78.164062 74.753906 74.667969.425781.511718 20.90625 20.820313zm0 0" fill="#37474f"/><g fill="#607d8b"><path d="m434.445312 126.878906-78.164062 98.21875-108.203125 135.933594-90.199219 113.324219c-1.507812 1.910156-3.757812 3.085937-6.183594 3.234375-2.429687.144531-4.804687-.75-6.53125-2.464844l-134.144531-134.144531c-1.714843-1.726563-2.609375-4.101563-2.464843-6.53125.148437-2.429688 1.324218-4.679688 3.234374-6.183594l113.324219-90.199219 135.933594-108.203125 98.21875-78.164062 74.753906 74.667969zm0 0"/><path d="m203.277344 465.394531-24.0625 30.292969c-1.507813 1.910156-3.757813 3.085938-6.1875 3.234375-2.429688.144531-4.804688-.75-6.527344-2.464844l-56.832031-56.832031-12.035157-12.03125-12.117187-12.117188-12.03125-12.035156-60.328125-60.328125-2.136719-2.132812c-1.714843-1.726563-2.609375-4.101563-2.464843-6.53125.148437-2.429688 1.324218-4.679688 3.234374-6.183594l30.292969-24.066406 16.980469 16.984375v.082031l12.117188 12.035156 12.035156 12.03125 48.296875 48.296875 12.03125 12.117188h.085937zm0 0"/><path d="m455.351562 147.699219-95.574218-95.574219c22.582031-16.597656 53.058594-17.546875 76.628906-2.386719 4.292969 2.707031 8.269531 5.886719 11.863281 9.46875 23.949219 23.671875 26.964844 61.3125 7.082031 88.492188zm0 0"/><path d="m492.726562 63.046875-26.707031 26.710937-24.152343-24.148437-24.148438-24.148437 26.710938-26.710938c6.691406-7.492188 18.191406-8.140625 25.683593-1.449219l18.089844 18.089844 5.976563 5.972656c6.691406 7.492188 6.039062 18.992188-1.453126 25.683594zm0 0"/><path d="m377.613281 246.429688-108.203125 135.9375-21.332031-21.335938-122.964844-122.964844 135.933594-108.203125zm0 0"/></g><path d="m181.945312 444.0625-24.066406 30.292969c-1.507812 1.910156-3.757812 3.085937-6.183594 3.234375-2.429687.144531-4.804687-.75-6.53125-2.464844l-23.464843-23.46875-12.03125-12.03125-12.035157-12.03125-12.117187-12.117188-12.03125-12.035156-60.328125-60.328125-2.136719-2.132812c-1.714843-1.726563-2.609375-4.101563-2.464843-6.53125.148437-2.429688 1.324218-4.679688 3.234374-6.183594l30.292969-24.066406 16.980469 16.984375v.082031l12.117188 12.035156 12.035156 12.03125 48.296875 48.296875 12.03125 12.117188h.085937zm0 0" fill="#cfd8dc"/><path d="m434.019531 126.367188-74.242187-74.242188c22.582031-16.597656 53.058594-17.546875 76.628906-2.386719 15.160156 23.570313 14.207031 54.046875-2.386719 76.628907zm0 0" fill="#cfd8dc"/><path d="m356.28125 225.097656-108.203125 135.933594-122.964844-122.964844 135.933594-108.203125zm0 0" fill="#cfd8dc"/><path d="m290.140625 217.328125c-16.660156-16.660156-43.578125-16.757813-60.121094-.214844s-16.445312 43.460938.21875 60.121094c16.660157 16.664063 43.578125 16.761719 60.121094.21875s16.445313-43.460937-.21875-60.125zm0 0" fill="#f44335"/><path d="m507.292969 50.402344c.515625-7.066406-2.054688-14.011719-7.046875-19.039063l-24.132813-24.132812c-10.839843-9.957031-27.683593-9.289063-37.699219 1.496093l-23.460937 23.429688c-19.90625-4.152344-40.652344-.097656-57.53125 11.25-1.257813.246094-2.445313.78125-3.464844 1.558594l-98.191406 78.183594-135.96875 108.210937-.050781.070313-113.316406 90.1875c-3.800782 3.03125-6.128907 7.539062-6.4023442 12.390624-.2734378 4.855469 1.5390622 9.59375 4.9765622 13.03125l29.441406 29.429688 96.496094 96.496094 29.429688 29.4375c3.199218 3.203125 7.539062 5 12.066406 5.003906h.957031c4.855469-.277344 9.363281-2.609375 12.398438-6.410156l90.257812-113.261719.066407-.050781 106.984374-134.425782 79.359376-99.738281c.734374-.957031 1.222656-2.078125 1.425781-3.269531 11.46875-16.902344 15.59375-37.730469 11.433593-57.726562l23.449219-23.457032c5.035157-4.96875 8.066407-11.609375 8.523438-18.664062zm-56.8125-29.609375c3.371093-4.089844 9.386719-4.753907 13.566406-1.496094l6.035156 6.035156-22.1875 22.1875c-4.574219-3.65625-9.546875-6.78125-14.824219-9.3125zm-8.289063 44.484375c18.1875 18.101562 22.835938 45.765625 11.574219 68.820312l-40.191406-40.191406-40.195313-40.183594c23.046875-11.269531 50.710938-6.625 68.8125 11.554688zm-186.324218 112.324218c2.945312 3.675782 8.3125 4.269532 11.988281 1.328126l16.863281-13.421876 81.511719 81.511719-97.527344 122.546875-130.792969-130.789062 122.523438-97.53125 12.140625 12.144531-15.359375 12.21875c-3.679688 2.941406-4.285156 8.308594-1.347656 11.992187zm-53.296876 275.042969-147.738281-147.734375 69.648438-55.46875 133.53125 133.554688zm-77.613281-9.785156 21.847657-21.847656 12.074218 12.066406-21.855468 21.847656zm-24.132812-24.140625 21.847656-21.847656 12.066406 12.074218-21.847656 21.847657zm-24.140625-24.132812 21.847656-21.847657 12.074219 12.066407-21.847657 21.847656zm-24.132813-24.132813 21.847657-21.855469 12.066406 12.09375-21.847656 21.84375zm-11.152343-54.851563 20.90625 20.933594-21.84375 21.84375-23.382813-23.40625zm131.105468 174.796876-23.40625-23.417969 21.847656-21.84375 20.929688 20.933593zm204.417969-256.785157-78.761719-78.773437 63.828125-50.8125c2.492188-1.863282 3.777344-4.933594 3.347657-8.015625-.429688-3.082031-2.503907-5.6875-5.410157-6.796875s-6.1875-.546875-8.5625 1.464844l-65.347656 52.054687-12.152344-12.144531 84.753907-67.464844 85.769531 85.734375zm109.753906-176.640625-17.433593 17.46875c-2.523438-5.277344-5.636719-10.25-9.28125-14.824218l22.183593-22.1875 6.035157 6.035156c1.507812 1.605468 2.261718 3.777344 2.074218 5.972656-.226562 2.875-1.5 5.5625-3.578125 7.5625zm0 0"/><path d="m209.140625 247.199219c.121094 28.226562 22.972656 51.078125 51.199219 51.199219h.179687c13.492188.011718 26.4375-5.355469 35.960938-14.914063 9.527343-9.558594 14.847656-22.519531 14.785156-36.011719-.121094-28.226562-22.972656-51.082031-51.199219-51.203125h-.179687c-13.492188-.011719-26.4375 5.355469-35.960938 14.914063-9.527343 9.558594-14.847656 22.519531-14.785156 36.015625zm26.914063-24.015625c6.3125-6.332032 14.890624-9.875 23.832031-9.847656h.121093c18.800782.121093 34.011719 15.332031 34.132813 34.136718.046875 8.957032-3.480469 17.5625-9.804687 23.910156-6.324219 6.34375-14.917969 9.90625-23.878907 9.886719h-.117187c-18.800782-.121093-34.011719-15.332031-34.132813-34.132812-.078125-8.992188 3.472657-17.640625 9.847657-23.984375zm0 0"/></svg>