<?xml version="1.0"?>
<svg xmlns="http://www.w3.org/2000/svg" id="Solid" viewBox="0 0 512 512" width="512" height="512"><path d="M141.3,176.237C171.771,155.376,211.952,144,256,144c11.632,0,31.583-15.876,49.644-39.5C322.06,83.019,333.6,59.774,335.667,44.56A257.273,257.273,0,0,0,256,32c-52.751,0-103.714,15.943-144,44.96v47.727l1.373,1.372A103.878,103.878,0,0,1,141.3,176.237Z"/><path d="M80.845,299.578A7.994,7.994,0,0,1,80,296V224a8,8,0,0,1,16,0v56a16,16,0,0,0,32,0V200a87.991,87.991,0,0,0-25.941-62.627l-3.716-3.716A8,8,0,0,1,96,128V32H32V272.446a24.117,24.117,0,0,0,2.534,10.733L89.3,392.714a17.044,17.044,0,0,0,30.49-15.244Z"/><path d="M377.9,370.313l29.6-59.2A32.012,32.012,0,0,1,368,280V200c0-1.954.059-3.9.165-5.834C339.765,172.109,300.1,160,256,160s-83.765,12.109-112.165,34.166c.106,1.936.165,3.88.165,5.834v80a32.012,32.012,0,0,1-39.5,31.112l29.6,59.2a33.245,33.245,0,0,1-2.47,33.666C163.858,451.073,210.849,480,256,480s92.142-28.927,124.369-76.021A33.245,33.245,0,0,1,377.9,370.313ZM232,312a8,8,0,0,1,16,0v24h24a8,8,0,0,1,0,16H240a8,8,0,0,1-8-8Zm-72-16a8,8,0,0,1,16,0,8,8,0,0,0,16,0,8,8,0,0,1,16,0,24,24,0,0,1-48,0Zm159.329,83.207C318.672,380.709,302.7,416,256,416s-62.672-35.291-63.329-36.793a8,8,0,0,1,14.642-6.449C207.87,373.983,220.133,400,256,400c36.348,0,48.552-26.935,48.671-27.207a8,8,0,0,1,14.658,6.414ZM328,320a24.027,24.027,0,0,1-24-24,8,8,0,0,1,16,0,8,8,0,0,0,16,0,8,8,0,0,1,16,0A24.027,24.027,0,0,1,328,320Z"/><path d="M287.906,146.064c31.438,4.147,59.865,14.475,82.8,30.173a103.888,103.888,0,0,1,27.925-50.178L400,124.687V76.96a231.275,231.275,0,0,0-49.1-26.866c-3.03,15.469-12.648,38.087-32.544,64.118C312.39,122.017,301.08,135.686,287.906,146.064Z"/><path d="M416,128a8,8,0,0,1-2.343,5.657l-3.716,3.716A87.989,87.989,0,0,0,384,200v80a16,16,0,0,0,32,0V224a8,8,0,0,1,16,0v72a7.994,7.994,0,0,1-.845,3.578L392.209,377.47a17.13,17.13,0,0,0,4.6,20.93,17.045,17.045,0,0,0,25.892-5.686l54.767-109.535A24.117,24.117,0,0,0,480,272.446V32H416Z"/></svg>
